<svg width="20" height="20" viewBox="0 0 20 20" fill="none" xmlns="http://www.w3.org/2000/svg">
<path d="M8.94975 11.4303L7.15375 9.64026C7.06042 9.54693 6.94675 9.49693 6.81275 9.49026C6.67808 9.48359 6.55575 9.53559 6.44575 9.64626C6.33908 9.75292 6.28575 9.87092 6.28575 10.0003C6.28575 10.1296 6.33908 10.2476 6.44575 10.3543L8.38375 12.2923C8.54575 12.4536 8.73442 12.5343 8.94975 12.5343C9.16508 12.5343 9.35375 12.4536 9.51575 12.2923L13.5538 8.25426C13.6511 8.15692 13.7021 8.04226 13.7067 7.91026C13.7114 7.77759 13.6604 7.65626 13.5538 7.54626C13.4438 7.43626 13.3247 7.38026 13.1967 7.37826C13.0687 7.37626 12.9501 7.43026 12.8407 7.54026L8.94975 11.4303ZM6.66975 18.6163L5.35375 16.4163L2.87275 15.8923C2.67408 15.8556 2.51575 15.7489 2.39775 15.5723C2.27975 15.3963 2.23108 15.2089 2.25175 15.0103L2.48875 12.4543L0.80575 10.5343C0.664417 10.3896 0.59375 10.2116 0.59375 10.0003C0.59375 9.78893 0.664417 9.61092 0.80575 9.46626L2.48875 7.54626L2.25175 4.99126C2.23175 4.79193 2.28042 4.60426 2.39775 4.42826C2.51575 4.25226 2.67408 4.14559 2.87275 4.10826L5.35275 3.58526L6.66875 1.38526C6.77675 1.20659 6.92175 1.08326 7.10375 1.01526C7.28575 0.946592 7.47408 0.955592 7.66875 1.04226L9.99975 2.02726L12.3298 1.04226C12.5251 0.955592 12.7137 0.946592 12.8958 1.01526C13.0778 1.08326 13.2228 1.20659 13.3308 1.38526L14.6458 3.58526L17.1268 4.10826C17.3254 4.14559 17.4837 4.25226 17.6017 4.42826C17.7197 4.60426 17.7684 4.79193 17.7477 4.99126L17.5117 7.54626L19.1938 9.46626C19.3351 9.61092 19.4058 9.78893 19.4058 10.0003C19.4058 10.2116 19.3351 10.3899 19.1938 10.5353L17.5117 12.4543L17.7477 15.0093C17.7677 15.2086 17.7191 15.3963 17.6017 15.5723C17.4837 15.7489 17.3254 15.8556 17.1268 15.8923L14.6467 16.4163L13.3308 18.6163C13.2228 18.7943 13.0778 18.9176 12.8958 18.9863C12.7137 19.0549 12.5254 19.0456 12.3308 18.9583L9.99975 17.9733L7.66975 18.9583C7.47442 19.0449 7.28575 19.0539 7.10375 18.9853C6.92175 18.9173 6.77675 18.7939 6.66875 18.6153" fill="#176FFB"/>
</svg>
